<?xml version="1.0" encoding="UTF-8" standalone="no"?><svg xmlns="http://www.w3.org/2000/svg" xmlns:xlink="http://www.w3.org/1999/xlink" contentStyleType="text/css" height="891px" preserveAspectRatio="none" style="width:615px;height:891px;background:#FFFFFF;" version="1.1" viewBox="0 0 615 891" width="615px" zoomAndPan="magnify"><defs/><g><!--MD5=[54562364cd4ea45a60cec944083c2372]
cluster Dispositivo Cliente--><g id="cluster_Dispositivo Cliente"><polygon fill="none" points="214,16,224,6,598,6,598,241,588,251,214,251,214,16" style="stroke:#181818;stroke-width:1.0;"/><line style="stroke:#181818;stroke-width:1.0;" x1="588" x2="598" y1="16" y2="6"/><line style="stroke:#181818;stroke-width:1.0;" x1="214" x2="588" y1="16" y2="16"/><line style="stroke:#181818;stroke-width:1.0;" x1="588" x2="588" y1="16" y2="251"/><text fill="#000000" font-family="JetBrains Mono" font-size="12" font-style="italic" lengthAdjust="spacing" textLength="308" x="248" y="31.2333">«device - Windows, Linux, Mac, IOS, Android»</text><text fill="#000000" font-family="JetBrains Mono" font-size="12" font-weight="bold" lengthAdjust="spacing" textLength="133" x="335.5" y="47.0646">Dispositivo Cliente</text></g><!--MD5=[7fa1fb7cbbc9404d8cefec7d20ceceb2]
cluster Navegador--><g id="cluster_Navegador"><polygon fill="none" points="246,87,256,77,548,77,548,209,538,219,246,219,246,87" style="stroke:#181818;stroke-width:1.0;"/><line style="stroke:#181818;stroke-width:1.0;" x1="538" x2="548" y1="87" y2="77"/><line style="stroke:#181818;stroke-width:1.0;" x1="246" x2="538" y1="87" y2="87"/><line style="stroke:#181818;stroke-width:1.0;" x1="538" x2="538" y1="87" y2="219"/><text fill="#000000" font-family="JetBrains Mono" font-size="12" font-style="italic" lengthAdjust="spacing" textLength="84" x="351" y="102.2333">«Aplicación»</text><text fill="#000000" font-family="JetBrains Mono" font-size="12" font-weight="bold" lengthAdjust="spacing" textLength="63" x="361.5" y="118.0646">Navegador</text></g><!--MD5=[bd90ffa7a8662ad8ca54e14c9a9071ea]
cluster Servidor Web--><g id="cluster_Servidor Web"><polygon fill="none" points="27,310,37,300,542,300,542,698,532,708,27,708,27,310" style="stroke:#181818;stroke-width:1.0;"/><line style="stroke:#181818;stroke-width:1.0;" x1="532" x2="542" y1="310" y2="300"/><line style="stroke:#181818;stroke-width:1.0;" x1="27" x2="532" y1="310" y2="310"/><line style="stroke:#181818;stroke-width:1.0;" x1="532" x2="532" y1="310" y2="708"/><text fill="#000000" font-family="JetBrains Mono" font-size="12" font-style="italic" lengthAdjust="spacing" textLength="56" x="252.5" y="325.2333">«device»</text><text fill="#000000" font-family="JetBrains Mono" font-size="12" font-weight="bold" lengthAdjust="spacing" textLength="84" x="238.5" y="341.0646">Servidor Web</text></g><!--MD5=[63aaa9bd3349469bec2578d8852333bb]
cluster IBD--><g id="cluster_IBD"><polygon fill="none" points="59,482,69,472,510,472,510,666,500,676,59,676,59,482" style="stroke:#181818;stroke-width:1.0;"/><line style="stroke:#181818;stroke-width:1.0;" x1="500" x2="510" y1="482" y2="472"/><line style="stroke:#181818;stroke-width:1.0;" x1="59" x2="500" y1="482" y2="482"/><line style="stroke:#181818;stroke-width:1.0;" x1="500" x2="500" y1="482" y2="676"/><text fill="#000000" font-family="JetBrains Mono" font-size="12" font-style="italic" lengthAdjust="spacing" textLength="161" x="200" y="497.2333">«Execution Environment»</text><text fill="#000000" font-family="JetBrains Mono" font-size="12" font-weight="bold" lengthAdjust="spacing" textLength="147" x="207" y="513.0646">Interfaz BD - Node.Js</text></g><!--MD5=[ef03d728570c6dcb71a1281c86e26233]
cluster Express.js--><g id="cluster_Express.js"><polygon fill="none" points="99,553,109,543,478,543,478,634,468,644,99,644,99,553" style="stroke:#181818;stroke-width:1.0;"/><line style="stroke:#181818;stroke-width:1.0;" x1="468" x2="478" y1="553" y2="543"/><line style="stroke:#181818;stroke-width:1.0;" x1="99" x2="468" y1="553" y2="553"/><line style="stroke:#181818;stroke-width:1.0;" x1="468" x2="468" y1="553" y2="644"/><text fill="#000000" font-family="JetBrains Mono" font-size="12" font-weight="bold" lengthAdjust="spacing" textLength="70" x="249.5" y="568.2333">Express.js</text></g><!--MD5=[737b3725d8b120505f8bbcbb1937784b]
cluster Servidor BD--><g id="cluster_Servidor BD"><polygon fill="none" points="16,767,26,757,291,757,291,864,281,874,16,874,16,767" style="stroke:#181818;stroke-width:1.0;"/><line style="stroke:#181818;stroke-width:1.0;" x1="281" x2="291" y1="767" y2="757"/><line style="stroke:#181818;stroke-width:1.0;" x1="16" x2="281" y1="767" y2="767"/><line style="stroke:#181818;stroke-width:1.0;" x1="281" x2="281" y1="767" y2="874"/><text fill="#000000" font-family="JetBrains Mono" font-size="12" font-style="italic" lengthAdjust="spacing" textLength="56" x="121.5" y="782.2333">«device»</text><text fill="#000000" font-family="JetBrains Mono" font-size="12" font-weight="bold" lengthAdjust="spacing" textLength="77" x="111" y="798.0646">Servidor BD</text></g><!--MD5=[3d3cd76ac90e577366be3a1431c06e0a]
entity Bootstrap--><g id="elem_Bootstrap"><rect fill="#F1F1F1" height="54.6626" rx="2.5" ry="2.5" style="stroke:#181818;stroke-width:0.5;" width="100" x="424" y="140"/><polygon fill="#F1F1F1" points="507,145,507,159,519,159,519,151,513,145,507,145" style="stroke:#181818;stroke-width:0.5;"/><line style="stroke:#181818;stroke-width:0.5;" x1="513" x2="513" y1="145" y2="151"/><line style="stroke:#181818;stroke-width:0.5;" x1="519" x2="513" y1="151" y2="151"/><text fill="#000000" font-family="JetBrains Mono" font-size="12" font-style="italic" lengthAdjust="spacing" textLength="70" x="434" y="165.2333">«artifact»</text><text fill="#000000" font-family="JetBrains Mono" font-size="12" lengthAdjust="spacing" textLength="63" x="437.5" y="181.0646">Bootstrap</text></g><!--MD5=[337e6b79d718c77a547df0b55e57459f]
entity React.js--><g id="elem_React.js"><rect fill="#F1F1F1" height="54.6626" rx="2.5" ry="2.5" style="stroke:#181818;stroke-width:0.5;" width="100" x="289" y="140"/><polygon fill="#F1F1F1" points="372,145,372,159,384,159,384,151,378,145,372,145" style="stroke:#181818;stroke-width:0.5;"/><line style="stroke:#181818;stroke-width:0.5;" x1="378" x2="378" y1="145" y2="151"/><line style="stroke:#181818;stroke-width:0.5;" x1="384" x2="378" y1="151" y2="151"/><text fill="#000000" font-family="JetBrains Mono" font-size="12" font-style="italic" lengthAdjust="spacing" textLength="70" x="299" y="165.2333">«artifact»</text><text fill="#000000" font-family="JetBrains Mono" font-size="12" lengthAdjust="spacing" textLength="56" x="306" y="181.0646">React.js</text></g><!--MD5=[412002fae51c56458fd5c3992d117e33]
entity Servidor HTTP--><g id="elem_Servidor HTTP"><rect fill="#F1F1F1" height="45.8313" rx="2.5" ry="2.5" style="stroke:#181818;stroke-width:0.5;" width="131" x="188.5" y="363"/><rect fill="#F1F1F1" height="10" style="stroke:#181818;stroke-width:0.5;" width="15" x="299.5" y="368"/><rect fill="#F1F1F1" height="2" style="stroke:#181818;stroke-width:0.5;" width="4" x="297.5" y="370"/><rect fill="#F1F1F1" height="2" style="stroke:#181818;stroke-width:0.5;" width="4" x="297.5" y="374"/><text fill="#000000" font-family="JetBrains Mono" font-size="12" lengthAdjust="spacing" textLength="91" x="203.5" y="395.2333">Servidor HTTP</text></g><!--MD5=[02c699526a83373a2b48c5510c6e60d5]
entity Aplicación--><g id="elem_Aplicación"><polygon fill="#F1F1F1" points="43,365,53,355,153,355,153,406.6626,143,416.6626,43,416.6626,43,365" style="stroke:#181818;stroke-width:0.5;"/><line style="stroke:#181818;stroke-width:0.5;" x1="143" x2="153" y1="365" y2="355"/><line style="stroke:#181818;stroke-width:0.5;" x1="43" x2="143" y1="365" y2="365"/><line style="stroke:#181818;stroke-width:0.5;" x1="143" x2="143" y1="365" y2="416.6626"/><text fill="#000000" font-family="JetBrains Mono" font-size="12" font-style="italic" lengthAdjust="spacing" textLength="70" x="58" y="387.2333">«React.js»</text><text fill="#000000" font-family="JetBrains Mono" font-size="12" lengthAdjust="spacing" textLength="70" x="58" y="403.0646">Aplicación</text></g><!--MD5=[31d9f9646cb52c054614ba682d3f7108]
entity Express Middleware--><g id="elem_Express Middleware"><rect fill="#F1F1F1" height="45.8313" rx="2.5" ry="2.5" style="stroke:#181818;stroke-width:0.5;" width="166" x="296" y="582"/><rect fill="#F1F1F1" height="10" style="stroke:#181818;stroke-width:0.5;" width="15" x="442" y="587"/><rect fill="#F1F1F1" height="2" style="stroke:#181818;stroke-width:0.5;" width="4" x="440" y="589"/><rect fill="#F1F1F1" height="2" style="stroke:#181818;stroke-width:0.5;" width="4" x="440" y="593"/><text fill="#000000" font-family="JetBrains Mono" font-size="12" lengthAdjust="spacing" textLength="126" x="311" y="614.2333">Express Middleware</text></g><!--MD5=[8518d66c9b1d9a5e296f48e2cc02616a]
entity Express Routing--><g id="elem_Express Routing"><rect fill="#F1F1F1" height="45.8313" rx="2.5" ry="2.5" style="stroke:#181818;stroke-width:0.5;" width="145" x="115.5" y="582"/><rect fill="#F1F1F1" height="10" style="stroke:#181818;stroke-width:0.5;" width="15" x="240.5" y="587"/><rect fill="#F1F1F1" height="2" style="stroke:#181818;stroke-width:0.5;" width="4" x="238.5" y="589"/><rect fill="#F1F1F1" height="2" style="stroke:#181818;stroke-width:0.5;" width="4" x="238.5" y="593"/><text fill="#000000" font-family="JetBrains Mono" font-size="12" lengthAdjust="spacing" textLength="105" x="130.5" y="614.2333">Express Routing</text></g><!--MD5=[ba72416187da2a396e219ea5b5d73a26]
entity MongoDB--><g id="elem_MongoDB"><path d="M32.5,822.5 C32.5,812.5 67,812.5 67,812.5 C67,812.5 101.5,812.5 101.5,822.5 L101.5,847.3313 C101.5,857.3313 67,857.3313 67,857.3313 C67,857.3313 32.5,857.3313 32.5,847.3313 L32.5,822.5 " fill="#F1F1F1" style="stroke:#181818;stroke-width:0.5;"/><path d="M32.5,822.5 C32.5,832.5 67,832.5 67,832.5 C67,832.5 101.5,832.5 101.5,822.5 " fill="none" style="stroke:#181818;stroke-width:0.5;"/><text fill="#000000" font-family="JetBrains Mono" font-size="12" lengthAdjust="spacing" textLength="49" x="42.5" y="848.7333">MongoDB</text></g><!--MD5=[be62abfecf94cac247d0f11cfa453d87]
entity Almacenamiento--><g id="elem_Almacenamiento"><rect fill="#F1F1F1" height="45.8313" rx="2.5" ry="2.5" style="stroke:#181818;stroke-width:0.5;" width="138" x="137" y="812"/><rect fill="#F1F1F1" height="10" style="stroke:#181818;stroke-width:0.5;" width="15" x="255" y="817"/><rect fill="#F1F1F1" height="2" style="stroke:#181818;stroke-width:0.5;" width="4" x="253" y="819"/><rect fill="#F1F1F1" height="2" style="stroke:#181818;stroke-width:0.5;" width="4" x="253" y="823"/><text fill="#000000" font-family="JetBrains Mono" font-size="12" lengthAdjust="spacing" textLength="98" x="152" y="844.2333">Almacenamiento</text></g><!--MD5=[128f0757cf0ea77f14e95a88885fd9f7]
entity Usuario--><g id="elem_Usuario"><ellipse cx="173" cy="138" fill="#F1F1F1" rx="8" ry="8" style="stroke:#181818;stroke-width:0.5;"/><path d="M173,146 L173,173 M160,154 L186,154 M173,173 L160,188 M173,173 L186,188 " fill="none" style="stroke:#181818;stroke-width:0.5;"/><text fill="#000000" font-family="JetBrains Mono" font-size="12" lengthAdjust="spacing" textLength="49" x="148.5" y="201.7333">Usuario</text></g><!--MD5=[d339afe8c85043fd404b919b5f59b290]
link Usuario to Navegador--><g id="link_Usuario_Navegador"><path d="M202.83,167.5 C213.6,167.5 225.455,167.5 235.04,167.5 C237.4363,167.5 239.6906,167.5 241.7507,167.5 C242.7807,167.5 243.7622,167.5 244.6885,167.5 C244.9201,167.5 245.1483,167.5 245.3729,167.5 C245.4852,167.5 245.5966,167.5 245.7071,167.5 C245.7623,167.5 245.8174,167.5 245.8722,167.5 " fill="none" id="Usuario-Navegador" style="stroke:#181818;stroke-width:1.0;"/><polygon fill="#181818" points="245.8722,167.5,236.8722,163.5,240.8722,167.5,236.8722,171.5,245.8722,167.5" style="stroke:#181818;stroke-width:1.0;"/><polygon fill="#181818" points="197.74,167.5,206.74,171.5,202.74,167.5,206.74,163.5,197.74,167.5" style="stroke:#181818;stroke-width:1.0;"/><text fill="#000000" font-family="JetBrains Mono" font-size="12" lengthAdjust="spacing" textLength="14" x="218.57" y="160.7333">UI</text></g><!--MD5=[3c803dfe035eff7989495df9a2040b12]
link Navegador to Servidor HTTP--><g id="link_Navegador_Servidor HTTP"><path d="M254,219.7405 C254,220.019 254,220.2983 254,220.5783 C254,221.1382 254,221.7009 254,222.2663 C254,224.5278 254,226.8323 254,229.1738 C254,233.8569 254,238.6883 254,243.6213 C254,283.085 254,329.05 254,357.59 " fill="none" id="Navegador-Servidor HTTP" style="stroke:#181818;stroke-width:1.0;"/><polygon fill="#181818" points="254,362.89,258,353.89,254,357.89,250,353.89,254,362.89" style="stroke:#181818;stroke-width:1.0;"/><polygon fill="#181818" points="254,219.7405,250,228.7405,254,224.7405,258,228.7405,254,219.7405" style="stroke:#181818;stroke-width:1.0;"/><text fill="#000000" font-family="JetBrains Mono" font-size="12" lengthAdjust="spacing" textLength="70" x="255" y="280.2333">HTTP/HTTPS</text></g><!--MD5=[9c8d8800bbf905b3295316fa4a2d33f8]
link Aplicación to Servidor HTTP--><g id="link_Aplicación_Servidor HTTP"><path d="M158.35,386 C166.59,386 174.84,386 183.08,386 " fill="none" id="Aplicación-Servidor HTTP" style="stroke:#181818;stroke-width:1.0;"/><polygon fill="#181818" points="188.21,386,179.21,382,183.21,386,179.21,390,188.21,386" style="stroke:#181818;stroke-width:1.0;"/><polygon fill="#181818" points="153.15,386,162.15,390,158.15,386,162.15,382,153.15,386" style="stroke:#181818;stroke-width:1.0;"/></g><!--MD5=[25ef3213b8ea7915ea64088311d116dd]
link Aplicación to IBD--><g id="link_Aplicación_IBD"><path d="M92.98,422.13 C91.9013,429.685 90.6948,438.1328 89.4085,447.1395 C88.7653,451.6429 88.1022,456.286 87.425,461.0271 C87.0864,463.3976 86.7443,465.7926 86.3994,468.2069 C86.227,469.4141 86.0539,470.6261 85.8802,471.8422 " fill="none" id="Aplicación-IBD" style="stroke:#181818;stroke-width:1.0;"/><polygon fill="#181818" points="85.8802,471.8422,91.1126,463.4983,86.5872,466.8925,83.193,462.367,85.8802,471.8422" style="stroke:#181818;stroke-width:1.0;"/><polygon fill="#181818" points="93.69,417.17,88.4675,425.5202,92.9889,422.1206,96.3885,426.642,93.69,417.17" style="stroke:#181818;stroke-width:1.0;"/></g><!--MD5=[14c618edb3f531e12c306633eb8b609d]
link Servidor HTTP to IBD--><g id="link_Servidor HTTP_IBD"><path d="M192.86,411.13 C152.39,427.62 105.58,447.9 99,456 C96.3888,459.2131 93.9777,462.5911 91.7521,466.1015 C90.6393,467.8566 89.5728,469.6449 88.5509,471.4623 " fill="none" id="Servidor HTTP-IBD" style="stroke:#181818;stroke-width:1.0;"/><polygon fill="#181818" points="88.5509,471.4623,96.4488,465.5781,91.0016,467.104,89.4757,461.6569,88.5509,471.4623" style="stroke:#181818;stroke-width:1.0;"/><polygon fill="#181818" points="197.76,409.13,187.916,408.8213,193.1295,411.0165,190.9344,416.23,197.76,409.13" style="stroke:#181818;stroke-width:1.0;"/></g><!--MD5=[0b4187b0260f5fc9e2eb6b3a7c1f109b]
link IBD to MongoDB--><g id="link_IBD_MongoDB"><path d="M67,676.8317 C67,677.4724 67,678.1152 67,678.7601 C67,681.3396 67,683.9517 67,686.59 C67,728.8025 67,777.72 67,807.24 " fill="none" id="IBD-MongoDB" style="stroke:#181818;stroke-width:1.0;"/><polygon fill="#181818" points="67,812.36,71,803.36,67,807.36,63,803.36,67,812.36" style="stroke:#181818;stroke-width:1.0;"/><polygon fill="#181818" points="67,676.8317,63,685.8317,67,681.8317,71,685.8317,67,676.8317" style="stroke:#181818;stroke-width:1.0;"/><text fill="#000000" font-family="JetBrains Mono" font-size="12" lengthAdjust="spacing" textLength="42" x="68" y="737.2333">TCP/IP</text></g><!--MD5=[c5ce7ffb3d789285794f6039ad5d43e5]
link MongoDB to Almacenamiento--><g id="link_MongoDB_Almacenamiento"><path d="M106.95,835 C115.18,835 123.41,835 131.65,835 " fill="none" id="MongoDB-Almacenamiento" style="stroke:#181818;stroke-width:1.0;"/><polygon fill="#181818" points="136.77,835,127.77,831,131.77,835,127.77,839,136.77,835" style="stroke:#181818;stroke-width:1.0;"/><polygon fill="#181818" points="101.75,835,110.75,839,106.75,835,110.75,831,101.75,835" style="stroke:#181818;stroke-width:1.0;"/></g><!--MD5=[d35580a1f7dc14ee0f8e230cdd73602f]
@startuml
<style>
title{
	FontName JetBrains Mono
	FontStyle Bold
	FontSize 14
}
componentDiagram{
	FontName JetBrains Mono
	FontSize 12
}

</style>

' !include https://raw.githubusercontent.com/ptrkcsk/one-dark-plantuml-theme/v1.0.0/theme.puml

' title Diagrama de Despliegue\nSistema de Reserva\npara Plataforma de Envíos InstaYA
actor "Usuario"
' node node [
' <b>Sistema de Login
' - - - -
' Inicializa el panel de usuario
' Registra Usuario

' ]

node "Dispositivo Cliente" <<device - Windows, Linux, Mac, IOS, Android>> {

    node Navegador <<Aplicación>> {
        artifact Bootstrap <<artifact>>
        artifact React.js <<artifact>>
    }

}

node "Servidor Web" <<device>> {
    node "Aplicación" <<React.js>> {
        ' [Login]
        ' [Registro]
        ' [Listado Órdenes]
        ' [Registro Órdenes]
        ' [Actualización Órdenes]

    }
    component "Servidor HTTP"
    node "Interfaz BD - Node.Js" <<Execution Environment>> as IBD {
        node "Express.js" {
            [Express Middleware]
            [Express Routing]

        }

    }
}

node "Servidor BD" <<device>> {

    database "MongoDB"
    component "Almacenamiento"
}

' node ISP <<Access Point>> {
'     rectangle "???"
' }
' node "ISP"


[Usuario] <-> Navegador : UI
' Navegador <- -> ISP : HTTP/HTTPS
' ISP <- -> [Servidor HTTP] : HTTP/HTTPS
Navegador <- -> [Servidor HTTP] : HTTP/HTTPS
Aplicación <-> [Servidor HTTP]
Aplicación <-> IBD
[Servidor HTTP] <- -> IBD


' [Navegador] <- -> [Servidor HTTP] : <<HTTP/HTTPS>>\nISP
IBD <- -> [MongoDB] : TCP/IP
[MongoDB] <-> [Almacenamiento]

' [Login] -> [Registro]
' [Login] - -> [Listado Órdenes]
' [Listado Órdenes] -> [Actualización Órdenes]
' [Listado Órdenes] - -> [Registro Órdenes]

@enduml

@startuml
<style>
title{
	FontName JetBrains Mono
	FontStyle Bold
	FontSize 14
}
componentDiagram{
	FontName JetBrains Mono
	FontSize 12
}

</style>


actor "Usuario"


node "Dispositivo Cliente" <<device - Windows, Linux, Mac, IOS, Android>> {

    node Navegador <<Aplicación>> {
        artifact Bootstrap <<artifact>>
        artifact React.js <<artifact>>
    }

}

node "Servidor Web" <<device>> {
    node "Aplicación" <<React.js>> {

    }
    component "Servidor HTTP"
    node "Interfaz BD - Node.Js" <<Execution Environment>> as IBD {
        node "Express.js" {
            [Express Middleware]
            [Express Routing]

        }

    }
}

node "Servidor BD" <<device>> {

    database "MongoDB"
    component "Almacenamiento"
}



[Usuario] <-> Navegador : UI
Navegador <- -> [Servidor HTTP] : HTTP/HTTPS
Aplicación <-> [Servidor HTTP]
Aplicación <-> IBD
[Servidor HTTP] <- -> IBD


IBD <- -> [MongoDB] : TCP/IP
[MongoDB] <-> [Almacenamiento]


@enduml

PlantUML version 1.2022.7(Mon Aug 22 12:01:30 COT 2022)
(GPL source distribution)
Java Runtime: Java(TM) SE Runtime Environment
JVM: Java HotSpot(TM) 64-Bit Server VM
Default Encoding: Cp1252
Language: en
Country: US
--></g></svg>