<?xml version="1.0" encoding="UTF-8" standalone="no"?><svg xmlns="http://www.w3.org/2000/svg" xmlns:xlink="http://www.w3.org/1999/xlink" contentStyleType="text/css" height="925px" preserveAspectRatio="none" style="width:602px;height:925px;background:#FFFFFF;" version="1.1" viewBox="0 0 602 925" width="602px" zoomAndPan="magnify"><defs/><g><!--MD5=[54562364cd4ea45a60cec944083c2372]
cluster Dispositivo Cliente--><g id="cluster_Dispositivo Cliente"><polygon fill="none" points="218,16,228,6,585,6,585,252,575,262,218,262,218,16" style="stroke:#181818;stroke-width:1.0;"/><line style="stroke:#181818;stroke-width:1.0;" x1="575" x2="585" y1="16" y2="6"/><line style="stroke:#181818;stroke-width:1.0;" x1="218" x2="575" y1="16" y2="16"/><line style="stroke:#181818;stroke-width:1.0;" x1="575" x2="575" y1="16" y2="262"/><text fill="#000000" font-family="sans-serif" font-size="14" font-style="italic" lengthAdjust="spacing" textLength="291" x="252" y="33.5332">«device - Windows, Linux, Mac, IOS, Android»</text><text fill="#000000" font-family="sans-serif" font-size="14" font-weight="bold" lengthAdjust="spacing" textLength="133" x="331" y="51.1426">Dispositivo Cliente</text></g><!--MD5=[7fa1fb7cbbc9404d8cefec7d20ceceb2]
cluster Navegador--><g id="cluster_Navegador"><polygon fill="none" points="250,91,260,81,533,81,533,220,523,230,250,230,250,91" style="stroke:#181818;stroke-width:1.0;"/><line style="stroke:#181818;stroke-width:1.0;" x1="523" x2="533" y1="91" y2="81"/><line style="stroke:#181818;stroke-width:1.0;" x1="250" x2="523" y1="91" y2="91"/><line style="stroke:#181818;stroke-width:1.0;" x1="523" x2="523" y1="91" y2="230"/><text fill="#000000" font-family="sans-serif" font-size="14" font-style="italic" lengthAdjust="spacing" textLength="80" x="347.5" y="108.5332">«Aplicación»</text><text fill="#000000" font-family="sans-serif" font-size="14" font-weight="bold" lengthAdjust="spacing" textLength="77" x="349" y="126.1426">Navegador</text></g><!--MD5=[bd90ffa7a8662ad8ca54e14c9a9071ea]
cluster Servidor Web--><g id="cluster_Servidor Web"><polygon fill="none" points="33,322,43,312,545,312,545,725,535,735,33,735,33,322" style="stroke:#181818;stroke-width:1.0;"/><line style="stroke:#181818;stroke-width:1.0;" x1="535" x2="545" y1="322" y2="312"/><line style="stroke:#181818;stroke-width:1.0;" x1="33" x2="535" y1="322" y2="322"/><line style="stroke:#181818;stroke-width:1.0;" x1="535" x2="535" y1="322" y2="735"/><text fill="#000000" font-family="sans-serif" font-size="14" font-style="italic" lengthAdjust="spacing" textLength="56" x="257" y="339.5332">«device»</text><text fill="#000000" font-family="sans-serif" font-size="14" font-weight="bold" lengthAdjust="spacing" textLength="96" x="237" y="357.1426">Servidor Web</text></g><!--MD5=[63aaa9bd3349469bec2578d8852333bb]
cluster IBD--><g id="cluster_IBD"><polygon fill="none" points="65,501,75,491,513,491,513,693,503,703,65,703,65,501" style="stroke:#181818;stroke-width:1.0;"/><line style="stroke:#181818;stroke-width:1.0;" x1="503" x2="513" y1="501" y2="491"/><line style="stroke:#181818;stroke-width:1.0;" x1="65" x2="503" y1="501" y2="501"/><line style="stroke:#181818;stroke-width:1.0;" x1="503" x2="503" y1="501" y2="703"/><text fill="#000000" font-family="sans-serif" font-size="14" font-style="italic" lengthAdjust="spacing" textLength="159" x="205.5" y="518.5332">«Execution Environment»</text><text fill="#000000" font-family="sans-serif" font-size="14" font-weight="bold" lengthAdjust="spacing" textLength="147" x="211.5" y="536.1426">Interfaz BD - Node.Js</text></g><!--MD5=[ef03d728570c6dcb71a1281c86e26233]
cluster Express.js--><g id="cluster_Express.js"><polygon fill="none" points="105,576,115,566,481,566,481,661,471,671,105,671,105,576" style="stroke:#181818;stroke-width:1.0;"/><line style="stroke:#181818;stroke-width:1.0;" x1="471" x2="481" y1="576" y2="566"/><line style="stroke:#181818;stroke-width:1.0;" x1="105" x2="471" y1="576" y2="576"/><line style="stroke:#181818;stroke-width:1.0;" x1="471" x2="471" y1="576" y2="671"/><text fill="#000000" font-family="sans-serif" font-size="14" font-weight="bold" lengthAdjust="spacing" textLength="73" x="252.5" y="593.5332">Express.js</text></g><!--MD5=[737b3725d8b120505f8bbcbb1937784b]
cluster Servidor BD--><g id="cluster_Servidor BD"><polygon fill="none" points="16,795,26,785,309,785,309,898,299,908,16,908,16,795" style="stroke:#181818;stroke-width:1.0;"/><line style="stroke:#181818;stroke-width:1.0;" x1="299" x2="309" y1="795" y2="785"/><line style="stroke:#181818;stroke-width:1.0;" x1="16" x2="299" y1="795" y2="795"/><line style="stroke:#181818;stroke-width:1.0;" x1="299" x2="299" y1="795" y2="908"/><text fill="#000000" font-family="sans-serif" font-size="14" font-style="italic" lengthAdjust="spacing" textLength="56" x="130.5" y="812.5332">«device»</text><text fill="#000000" font-family="sans-serif" font-size="14" font-weight="bold" lengthAdjust="spacing" textLength="85" x="116" y="830.1426">Servidor BD</text></g><!--MD5=[3d3cd76ac90e577366be3a1431c06e0a]
entity Bootstrap--><g id="elem_Bootstrap"><rect fill="#F1F1F1" height="58.2188" rx="2.5" ry="2.5" style="stroke:#181818;stroke-width:0.5;" width="91" x="417.5" y="148"/><polygon fill="#F1F1F1" points="491.5,153,491.5,167,503.5,167,503.5,159,497.5,153,491.5,153" style="stroke:#181818;stroke-width:0.5;"/><line style="stroke:#181818;stroke-width:0.5;" x1="497.5" x2="497.5" y1="153" y2="159"/><line style="stroke:#181818;stroke-width:0.5;" x1="503.5" x2="497.5" y1="159" y2="159"/><text fill="#000000" font-family="sans-serif" font-size="14" font-style="italic" lengthAdjust="spacing" textLength="59" x="428.5" y="175.5332">«artifact»</text><text fill="#000000" font-family="sans-serif" font-size="14" lengthAdjust="spacing" textLength="61" x="427.5" y="193.1426">Bootstrap</text></g><!--MD5=[337e6b79d718c77a547df0b55e57459f]
entity React.js--><g id="elem_React.js"><rect fill="#F1F1F1" height="58.2188" rx="2.5" ry="2.5" style="stroke:#181818;stroke-width:0.5;" width="89" x="293.5" y="148"/><polygon fill="#F1F1F1" points="365.5,153,365.5,167,377.5,167,377.5,159,371.5,153,365.5,153" style="stroke:#181818;stroke-width:0.5;"/><line style="stroke:#181818;stroke-width:0.5;" x1="371.5" x2="371.5" y1="153" y2="159"/><line style="stroke:#181818;stroke-width:0.5;" x1="377.5" x2="371.5" y1="159" y2="159"/><text fill="#000000" font-family="sans-serif" font-size="14" font-style="italic" lengthAdjust="spacing" textLength="59" x="303.5" y="175.5332">«artifact»</text><text fill="#000000" font-family="sans-serif" font-size="14" lengthAdjust="spacing" textLength="51" x="307.5" y="193.1426">React.js</text></g><!--MD5=[412002fae51c56458fd5c3992d117e33]
entity Servidor HTTP--><g id="elem_Servidor HTTP"><rect fill="#F1F1F1" height="47.6094" rx="2.5" ry="2.5" style="stroke:#181818;stroke-width:0.5;" width="133" x="191.5" y="379.5"/><rect fill="#F1F1F1" height="10" style="stroke:#181818;stroke-width:0.5;" width="15" x="304.5" y="384.5"/><rect fill="#F1F1F1" height="2" style="stroke:#181818;stroke-width:0.5;" width="4" x="302.5" y="386.5"/><rect fill="#F1F1F1" height="2" style="stroke:#181818;stroke-width:0.5;" width="4" x="302.5" y="390.5"/><text fill="#000000" font-family="sans-serif" font-size="14" lengthAdjust="spacing" textLength="93" x="206.5" y="414.0332">Servidor HTTP</text></g><!--MD5=[02c699526a83373a2b48c5510c6e60d5]
entity Aplicación--><g id="elem_Aplicación"><polygon fill="#F1F1F1" points="49.5,381,59.5,371,156.5,371,156.5,426.2188,146.5,436.2188,49.5,436.2188,49.5,381" style="stroke:#181818;stroke-width:0.5;"/><line style="stroke:#181818;stroke-width:0.5;" x1="146.5" x2="156.5" y1="381" y2="371"/><line style="stroke:#181818;stroke-width:0.5;" x1="49.5" x2="146.5" y1="381" y2="381"/><line style="stroke:#181818;stroke-width:0.5;" x1="146.5" x2="146.5" y1="381" y2="436.2188"/><text fill="#000000" font-family="sans-serif" font-size="14" font-style="italic" lengthAdjust="spacing" textLength="67" x="64.5" y="405.5332">«React.js»</text><text fill="#000000" font-family="sans-serif" font-size="14" lengthAdjust="spacing" textLength="64" x="66" y="423.1426">Aplicación</text></g><!--MD5=[31d9f9646cb52c054614ba682d3f7108]
entity Express Middleware--><g id="elem_Express Middleware"><rect fill="#F1F1F1" height="47.6094" rx="2.5" ry="2.5" style="stroke:#181818;stroke-width:0.5;" width="165" x="299.5" y="607"/><rect fill="#F1F1F1" height="10" style="stroke:#181818;stroke-width:0.5;" width="15" x="444.5" y="612"/><rect fill="#F1F1F1" height="2" style="stroke:#181818;stroke-width:0.5;" width="4" x="442.5" y="614"/><rect fill="#F1F1F1" height="2" style="stroke:#181818;stroke-width:0.5;" width="4" x="442.5" y="618"/><text fill="#000000" font-family="sans-serif" font-size="14" lengthAdjust="spacing" textLength="125" x="314.5" y="641.5332">Express Middleware</text></g><!--MD5=[8518d66c9b1d9a5e296f48e2cc02616a]
entity Express Routing--><g id="elem_Express Routing"><rect fill="#F1F1F1" height="47.6094" rx="2.5" ry="2.5" style="stroke:#181818;stroke-width:0.5;" width="143" x="121.5" y="607"/><rect fill="#F1F1F1" height="10" style="stroke:#181818;stroke-width:0.5;" width="15" x="244.5" y="612"/><rect fill="#F1F1F1" height="2" style="stroke:#181818;stroke-width:0.5;" width="4" x="242.5" y="614"/><rect fill="#F1F1F1" height="2" style="stroke:#181818;stroke-width:0.5;" width="4" x="242.5" y="618"/><text fill="#000000" font-family="sans-serif" font-size="14" lengthAdjust="spacing" textLength="103" x="136.5" y="641.5332">Express Routing</text></g><!--MD5=[ba72416187da2a396e219ea5b5d73a26]
entity MongoDB--><g id="elem_MongoDB"><path d="M32,854.5 C32,844.5 73,844.5 73,844.5 C73,844.5 114,844.5 114,854.5 L114,881.1094 C114,891.1094 73,891.1094 73,891.1094 C73,891.1094 32,891.1094 32,881.1094 L32,854.5 " fill="#F1F1F1" style="stroke:#181818;stroke-width:0.5;"/><path d="M32,854.5 C32,864.5 73,864.5 73,864.5 C73,864.5 114,864.5 114,854.5 " fill="none" style="stroke:#181818;stroke-width:0.5;"/><text fill="#000000" font-family="sans-serif" font-size="14" lengthAdjust="spacing" textLength="62" x="42" y="883.0332">MongoDB</text></g><!--MD5=[be62abfecf94cac247d0f11cfa453d87]
entity Almacenamiento--><g id="elem_Almacenamiento"><rect fill="#F1F1F1" height="47.6094" rx="2.5" ry="2.5" style="stroke:#181818;stroke-width:0.5;" width="144" x="149" y="844"/><rect fill="#F1F1F1" height="10" style="stroke:#181818;stroke-width:0.5;" width="15" x="273" y="849"/><rect fill="#F1F1F1" height="2" style="stroke:#181818;stroke-width:0.5;" width="4" x="271" y="851"/><rect fill="#F1F1F1" height="2" style="stroke:#181818;stroke-width:0.5;" width="4" x="271" y="855"/><text fill="#000000" font-family="sans-serif" font-size="14" lengthAdjust="spacing" textLength="104" x="164" y="878.5332">Almacenamiento</text></g><!--MD5=[128f0757cf0ea77f14e95a88885fd9f7]
entity Usuario--><g id="elem_Usuario"><ellipse cx="178" cy="146.5" fill="#F1F1F1" rx="8" ry="8" style="stroke:#181818;stroke-width:0.5;"/><path d="M178,154.5 L178,181.5 M165,162.5 L191,162.5 M178,181.5 L165,196.5 M178,181.5 L191,196.5 " fill="none" style="stroke:#181818;stroke-width:0.5;"/><text fill="#000000" font-family="sans-serif" font-size="14" lengthAdjust="spacing" textLength="48" x="154" y="212.5332">Usuario</text></g><!--MD5=[d339afe8c85043fd404b919b5f59b290]
link Usuario to Navegador--><g id="link_Usuario_Navegador"><path d="M207.04,177 C217.715,177 229.5175,177 239.0738,177 C241.4628,177 243.7115,177 245.7671,177 C246.7948,177 247.7743,177 248.699,177 C248.9301,177 249.1579,177 249.3821,177 C249.4942,177 249.6054,177 249.7157,177 C249.7709,177 249.8258,177 249.8805,177 " fill="none" id="Usuario-Navegador" style="stroke:#181818;stroke-width:1.0;"/><polygon fill="#181818" points="249.8805,177,240.8805,173,244.8805,177,240.8805,181,249.8805,177" style="stroke:#181818;stroke-width:1.0;"/><polygon fill="#181818" points="202,177,211,181,207,177,211,173,202,177" style="stroke:#181818;stroke-width:1.0;"/><text fill="#000000" font-family="sans-serif" font-size="13" lengthAdjust="spacing" textLength="12" x="223.82" y="170.4951">UI</text></g><!--MD5=[3c803dfe035eff7989495df9a2040b12]
link Navegador to Servidor HTTP--><g id="link_Navegador_Servidor HTTP"><path d="M258,230.232 C258,231.3809 258,232.5416 258,233.7135 C258,236.0572 258,238.4454 258,240.8721 C258,245.7254 258,250.7325 258,255.845 C258,296.745 258,344.39 258,374 " fill="none" id="Navegador-Servidor HTTP" style="stroke:#181818;stroke-width:1.0;"/><polygon fill="#181818" points="258,379.16,262,370.16,258,374.16,254,370.16,258,379.16" style="stroke:#181818;stroke-width:1.0;"/><polygon fill="#181818" points="258,230.232,254,239.232,258,235.232,262,239.232,258,230.232" style="stroke:#181818;stroke-width:1.0;"/><text fill="#000000" font-family="sans-serif" font-size="13" lengthAdjust="spacing" textLength="77" x="259" y="292.4951">HTTP/HTTPS</text></g><!--MD5=[9c8d8800bbf905b3295316fa4a2d33f8]
link Aplicación to Servidor HTTP--><g id="link_Aplicación_Servidor HTTP"><path d="M161.76,403.5 C169.95,403.5 178.15,403.5 186.34,403.5 " fill="none" id="Aplicación-Servidor HTTP" style="stroke:#181818;stroke-width:1.0;"/><polygon fill="#181818" points="191.45,403.5,182.45,399.5,186.45,403.5,182.45,407.5,191.45,403.5" style="stroke:#181818;stroke-width:1.0;"/><polygon fill="#181818" points="156.58,403.5,165.58,407.5,161.58,403.5,165.58,399.5,156.58,403.5" style="stroke:#181818;stroke-width:1.0;"/></g><!--MD5=[25ef3213b8ea7915ea64088311d116dd]
link Aplicación to IBD--><g id="link_Aplicación_IBD"><path d="M98.08,441.5 C97.0325,449.3688 95.8633,458.1534 94.6181,467.5097 C93.9955,472.1878 93.354,477.0089 92.6992,481.9298 C92.3717,484.3902 92.041,486.8756 91.7077,489.3806 C91.666,489.6937 91.6243,490.0071 91.5826,490.3209 " fill="none" id="Aplicación-IBD" style="stroke:#181818;stroke-width:1.0;"/><polygon fill="#181818" points="91.5826,490.3209,96.7347,481.9271,92.2421,485.3645,88.8046,480.8719,91.5826,490.3209" style="stroke:#181818;stroke-width:1.0;"/><polygon fill="#181818" points="98.77,436.33,93.622,444.7263,98.1129,441.2866,101.5526,445.7776,98.77,436.33" style="stroke:#181818;stroke-width:1.0;"/></g><!--MD5=[14c618edb3f531e12c306633eb8b609d]
link Servidor HTTP to IBD--><g id="link_Servidor HTTP_IBD"><path d="M196.81,429.59 C157.03,446.43 111.4,466.94 105,475 C102.3081,478.3888 99.8264,481.9472 97.5391,485.6417 C96.9672,486.5653 96.4076,487.4975 95.8598,488.4376 C95.5859,488.9076 95.315,489.3797 95.047,489.8536 C94.9131,490.0906 94.7798,490.3281 94.6473,490.566 " fill="none" id="Servidor HTTP-IBD" style="stroke:#181818;stroke-width:1.0;"/><polygon fill="#181818" points="94.6473,490.566,102.5208,484.6493,97.08,486.1977,95.5316,480.7569,94.6473,490.566" style="stroke:#181818;stroke-width:1.0;"/><polygon fill="#181818" points="201.63,427.56,191.7828,427.3769,197.024,429.5054,194.8955,434.7465,201.63,427.56" style="stroke:#181818;stroke-width:1.0;"/></g><!--MD5=[0b4187b0260f5fc9e2eb6b3a7c1f109b]
link IBD to MongoDB--><g id="link_IBD_MongoDB"><path d="M73,703.3634 C73,704.0253 73,704.6895 73,705.3559 C73,708.0216 73,710.7227 73,713.4525 C73,757.13 73,808.165 73,839.01 " fill="none" id="IBD-MongoDB" style="stroke:#181818;stroke-width:1.0;"/><polygon fill="#181818" points="73,844.37,77,835.37,73,839.37,69,835.37,73,844.37" style="stroke:#181818;stroke-width:1.0;"/><polygon fill="#181818" points="73,703.3634,69,712.3634,73,708.3634,77,712.3634,73,703.3634" style="stroke:#181818;stroke-width:1.0;"/><text fill="#000000" font-family="sans-serif" font-size="13" lengthAdjust="spacing" textLength="41" x="74" y="765.4951">TCP/IP</text></g><!--MD5=[c5ce7ffb3d789285794f6039ad5d43e5]
link MongoDB to Almacenamiento--><g id="link_MongoDB_Almacenamiento"><path d="M119.19,868 C127.35,868 135.5,868 143.65,868 " fill="none" id="MongoDB-Almacenamiento" style="stroke:#181818;stroke-width:1.0;"/><polygon fill="#181818" points="148.72,868,139.72,864,143.72,868,139.72,872,148.72,868" style="stroke:#181818;stroke-width:1.0;"/><polygon fill="#181818" points="114.05,868,123.05,872,119.05,868,123.05,864,114.05,868" style="stroke:#181818;stroke-width:1.0;"/></g><!--MD5=[5a4458ac49769b55d042a92f355ec78b]
@startuml

' !include https://raw.githubusercontent.com/ptrkcsk/one-dark-plantuml-theme/v1.0.0/theme.puml

' title Diagrama de Despliegue\nSistema de Reserva\npara Plataforma de Envíos InstaYA
actor "Usuario"
' node node [
' <b>Sistema de Login
' - - - -
' Inicializa el panel de usuario
' Registra Usuario

' ]

node "Dispositivo Cliente" <<device - Windows, Linux, Mac, IOS, Android>> {

    node Navegador <<Aplicación>> {
        artifact Bootstrap <<artifact>>
        artifact React.js <<artifact>>
    }

}

node "Servidor Web" <<device>> {
    node "Aplicación" <<React.js>> {
        ' [Login]
        ' [Registro]
        ' [Listado Órdenes]
        ' [Registro Órdenes]
        ' [Actualización Órdenes]

    }
    component "Servidor HTTP"
    node "Interfaz BD - Node.Js" <<Execution Environment>> as IBD {
        node "Express.js" {
            [Express Middleware]
            [Express Routing]

        }

    }
}

node "Servidor BD" <<device>> {

    database "MongoDB"
    component "Almacenamiento"
}

' node ISP <<Access Point>> {
'     rectangle "???"
' }
' node "ISP"


[Usuario] <-> Navegador : UI
' Navegador <- -> ISP : HTTP/HTTPS
' ISP <- -> [Servidor HTTP] : HTTP/HTTPS
Navegador <- -> [Servidor HTTP] : HTTP/HTTPS
Aplicación <-> [Servidor HTTP]
Aplicación <-> IBD
[Servidor HTTP] <- -> IBD


' [Navegador] <- -> [Servidor HTTP] : <<HTTP/HTTPS>>\nISP
IBD <- -> [MongoDB] : TCP/IP
[MongoDB] <-> [Almacenamiento]

' [Login] -> [Registro]
' [Login] - -> [Listado Órdenes]
' [Listado Órdenes] -> [Actualización Órdenes]
' [Listado Órdenes] - -> [Registro Órdenes]

@enduml

@startuml


actor "Usuario"


node "Dispositivo Cliente" <<device - Windows, Linux, Mac, IOS, Android>> {

    node Navegador <<Aplicación>> {
        artifact Bootstrap <<artifact>>
        artifact React.js <<artifact>>
    }

}

node "Servidor Web" <<device>> {
    node "Aplicación" <<React.js>> {

    }
    component "Servidor HTTP"
    node "Interfaz BD - Node.Js" <<Execution Environment>> as IBD {
        node "Express.js" {
            [Express Middleware]
            [Express Routing]

        }

    }
}

node "Servidor BD" <<device>> {

    database "MongoDB"
    component "Almacenamiento"
}



[Usuario] <-> Navegador : UI
Navegador <- -> [Servidor HTTP] : HTTP/HTTPS
Aplicación <-> [Servidor HTTP]
Aplicación <-> IBD
[Servidor HTTP] <- -> IBD


IBD <- -> [MongoDB] : TCP/IP
[MongoDB] <-> [Almacenamiento]


@enduml

PlantUML version 1.2022.7(Mon Aug 22 12:01:30 COT 2022)
(GPL source distribution)
Java Runtime: Java(TM) SE Runtime Environment
JVM: Java HotSpot(TM) 64-Bit Server VM
Default Encoding: Cp1252
Language: en
Country: US
--></g></svg>