<?xml version="1.0" encoding="UTF-8" standalone="no"?><svg xmlns="http://www.w3.org/2000/svg" xmlns:xlink="http://www.w3.org/1999/xlink" contentStyleType="text/css" height="1300px" preserveAspectRatio="none" style="width:1003px;height:1300px;background:#FFFFFF;" version="1.1" viewBox="0 0 1003 1300" width="1003px" zoomAndPan="magnify"><defs/><g><rect fill="none" height="62.8281" id="_title" style="stroke:none;stroke-width:1.0;" width="250" x="369.5" y="5"/><text fill="#000000" font-family="sans-serif" font-size="14" font-weight="bold" lengthAdjust="spacing" textLength="171" x="409" y="24.5332">Diagrama de Despliegue</text><text fill="#000000" font-family="sans-serif" font-size="14" font-weight="bold" lengthAdjust="spacing" textLength="140" x="424.5" y="42.1426">Sistema de Reserva</text><text fill="#000000" font-family="sans-serif" font-size="14" font-weight="bold" lengthAdjust="spacing" textLength="240" x="374.5" y="59.752">para Plataforma de Envíos InstaYA</text><!--MD5=[54562364cd4ea45a60cec944083c2372]
cluster Dispositivo Cliente--><g id="cluster_Dispositivo Cliente"><polygon fill="none" points="520,89.8281,530,79.8281,887,79.8281,887,325.8281,877,335.8281,520,335.8281,520,89.8281" style="stroke:#181818;stroke-width:1.0;"/><line style="stroke:#181818;stroke-width:1.0;" x1="877" x2="887" y1="89.8281" y2="79.8281"/><line style="stroke:#181818;stroke-width:1.0;" x1="520" x2="877" y1="89.8281" y2="89.8281"/><line style="stroke:#181818;stroke-width:1.0;" x1="877" x2="877" y1="89.8281" y2="335.8281"/><text fill="#000000" font-family="sans-serif" font-size="14" font-style="italic" lengthAdjust="spacing" textLength="291" x="554" y="107.3613">«device - Windows, Linux, Mac, IOS, Android»</text><text fill="#000000" font-family="sans-serif" font-size="14" font-weight="bold" lengthAdjust="spacing" textLength="133" x="633" y="124.9707">Dispositivo Cliente</text></g><!--MD5=[7fa1fb7cbbc9404d8cefec7d20ceceb2]
cluster Navegador--><g id="cluster_Navegador"><polygon fill="none" points="552,164.8281,562,154.8281,835,154.8281,835,293.8281,825,303.8281,552,303.8281,552,164.8281" style="stroke:#181818;stroke-width:1.0;"/><line style="stroke:#181818;stroke-width:1.0;" x1="825" x2="835" y1="164.8281" y2="154.8281"/><line style="stroke:#181818;stroke-width:1.0;" x1="552" x2="825" y1="164.8281" y2="164.8281"/><line style="stroke:#181818;stroke-width:1.0;" x1="825" x2="825" y1="164.8281" y2="303.8281"/><text fill="#000000" font-family="sans-serif" font-size="14" font-style="italic" lengthAdjust="spacing" textLength="80" x="649.5" y="182.3613">«Aplicación»</text><text fill="#000000" font-family="sans-serif" font-size="14" font-weight="bold" lengthAdjust="spacing" textLength="77" x="651" y="199.9707">Navegador</text></g><!--MD5=[bd90ffa7a8662ad8ca54e14c9a9071ea]
cluster Servidor Web--><g id="cluster_Servidor Web"><polygon fill="none" points="16,521.8281,26,511.8281,986,511.8281,986,1117.8281,976,1127.8281,16,1127.8281,16,521.8281" style="stroke:#181818;stroke-width:1.0;"/><line style="stroke:#181818;stroke-width:1.0;" x1="976" x2="986" y1="521.8281" y2="511.8281"/><line style="stroke:#181818;stroke-width:1.0;" x1="16" x2="976" y1="521.8281" y2="521.8281"/><line style="stroke:#181818;stroke-width:1.0;" x1="976" x2="976" y1="521.8281" y2="1127.8281"/><text fill="#000000" font-family="sans-serif" font-size="14" font-style="italic" lengthAdjust="spacing" textLength="56" x="469" y="539.3613">«device»</text><text fill="#000000" font-family="sans-serif" font-size="14" font-weight="bold" lengthAdjust="spacing" textLength="96" x="449" y="556.9707">Servidor Web</text></g><!--MD5=[7d0c07f9a6de271d4645135cfac067fc]
cluster Aplicación--><g id="cluster_Aplicación"><polygon fill="none" points="48,596.8281,58,586.8281,466,586.8281,466,1085.8281,456,1095.8281,48,1095.8281,48,596.8281" style="stroke:#181818;stroke-width:1.0;"/><line style="stroke:#181818;stroke-width:1.0;" x1="456" x2="466" y1="596.8281" y2="586.8281"/><line style="stroke:#181818;stroke-width:1.0;" x1="48" x2="456" y1="596.8281" y2="596.8281"/><line style="stroke:#181818;stroke-width:1.0;" x1="456" x2="456" y1="596.8281" y2="1095.8281"/><text fill="#000000" font-family="sans-serif" font-size="14" font-style="italic" lengthAdjust="spacing" textLength="48" x="229" y="614.3613">«react»</text><text fill="#000000" font-family="sans-serif" font-size="14" font-weight="bold" lengthAdjust="spacing" textLength="72" x="217" y="631.9707">Aplicación</text></g><!--MD5=[63aaa9bd3349469bec2578d8852333bb]
cluster IBD--><g id="cluster_IBD"><polygon fill="none" points="506,766.8281,516,756.8281,954,756.8281,954,958.8281,944,968.8281,506,968.8281,506,766.8281" style="stroke:#181818;stroke-width:1.0;"/><line style="stroke:#181818;stroke-width:1.0;" x1="944" x2="954" y1="766.8281" y2="756.8281"/><line style="stroke:#181818;stroke-width:1.0;" x1="506" x2="944" y1="766.8281" y2="766.8281"/><line style="stroke:#181818;stroke-width:1.0;" x1="944" x2="944" y1="766.8281" y2="968.8281"/><text fill="#000000" font-family="sans-serif" font-size="14" font-style="italic" lengthAdjust="spacing" textLength="90" x="681" y="784.3613">«API Node.js»</text><text fill="#000000" font-family="sans-serif" font-size="14" font-weight="bold" lengthAdjust="spacing" textLength="147" x="652.5" y="801.9707">Interfaz BD - Node.Js</text></g><!--MD5=[ef03d728570c6dcb71a1281c86e26233]
cluster Express.js--><g id="cluster_Express.js"><polygon fill="none" points="546,841.8281,556,831.8281,922,831.8281,922,926.8281,912,936.8281,546,936.8281,546,841.8281" style="stroke:#181818;stroke-width:1.0;"/><line style="stroke:#181818;stroke-width:1.0;" x1="912" x2="922" y1="841.8281" y2="831.8281"/><line style="stroke:#181818;stroke-width:1.0;" x1="546" x2="912" y1="841.8281" y2="841.8281"/><line style="stroke:#181818;stroke-width:1.0;" x1="912" x2="912" y1="841.8281" y2="936.8281"/><text fill="#000000" font-family="sans-serif" font-size="14" font-weight="bold" lengthAdjust="spacing" textLength="73" x="693.5" y="859.3613">Express.js</text></g><!--MD5=[737b3725d8b120505f8bbcbb1937784b]
cluster Servidor BD--><g id="cluster_Servidor BD"><polygon fill="none" points="468,1170.8281,478,1160.8281,761,1160.8281,761,1273.8281,751,1283.8281,468,1283.8281,468,1170.8281" style="stroke:#181818;stroke-width:1.0;"/><line style="stroke:#181818;stroke-width:1.0;" x1="751" x2="761" y1="1170.8281" y2="1160.8281"/><line style="stroke:#181818;stroke-width:1.0;" x1="468" x2="751" y1="1170.8281" y2="1170.8281"/><line style="stroke:#181818;stroke-width:1.0;" x1="751" x2="751" y1="1170.8281" y2="1283.8281"/><text fill="#000000" font-family="sans-serif" font-size="14" font-style="italic" lengthAdjust="spacing" textLength="56" x="582.5" y="1188.3613">«device»</text><text fill="#000000" font-family="sans-serif" font-size="14" font-weight="bold" lengthAdjust="spacing" textLength="85" x="568" y="1205.9707">Servidor BD</text></g><!--MD5=[3d3cd76ac90e577366be3a1431c06e0a]
entity Bootstrap--><g id="elem_Bootstrap"><rect fill="#F1F1F1" height="58.2188" rx="2.5" ry="2.5" style="stroke:#181818;stroke-width:0.5;" width="91" x="719.5" y="221.8281"/><polygon fill="#F1F1F1" points="793.5,226.8281,793.5,240.8281,805.5,240.8281,805.5,232.8281,799.5,226.8281,793.5,226.8281" style="stroke:#181818;stroke-width:0.5;"/><line style="stroke:#181818;stroke-width:0.5;" x1="799.5" x2="799.5" y1="226.8281" y2="232.8281"/><line style="stroke:#181818;stroke-width:0.5;" x1="805.5" x2="799.5" y1="232.8281" y2="232.8281"/><text fill="#000000" font-family="sans-serif" font-size="14" font-style="italic" lengthAdjust="spacing" textLength="59" x="730.5" y="249.3613">«artifact»</text><text fill="#000000" font-family="sans-serif" font-size="14" lengthAdjust="spacing" textLength="61" x="729.5" y="266.9707">Bootstrap</text></g><!--MD5=[337e6b79d718c77a547df0b55e57459f]
entity React.js--><g id="elem_React.js"><rect fill="#F1F1F1" height="58.2188" rx="2.5" ry="2.5" style="stroke:#181818;stroke-width:0.5;" width="89" x="595.5" y="221.8281"/><polygon fill="#F1F1F1" points="667.5,226.8281,667.5,240.8281,679.5,240.8281,679.5,232.8281,673.5,226.8281,667.5,226.8281" style="stroke:#181818;stroke-width:0.5;"/><line style="stroke:#181818;stroke-width:0.5;" x1="673.5" x2="673.5" y1="226.8281" y2="232.8281"/><line style="stroke:#181818;stroke-width:0.5;" x1="679.5" x2="673.5" y1="232.8281" y2="232.8281"/><text fill="#000000" font-family="sans-serif" font-size="14" font-style="italic" lengthAdjust="spacing" textLength="59" x="605.5" y="249.3613">«artifact»</text><text fill="#000000" font-family="sans-serif" font-size="14" lengthAdjust="spacing" textLength="51" x="609.5" y="266.9707">React.js</text></g><!--MD5=[412002fae51c56458fd5c3992d117e33]
entity Servidor HTTP--><g id="elem_Servidor HTTP"><rect fill="#F1F1F1" height="47.6094" rx="2.5" ry="2.5" style="stroke:#181818;stroke-width:0.5;" width="133" x="493.5" y="653.8281"/><rect fill="#F1F1F1" height="10" style="stroke:#181818;stroke-width:0.5;" width="15" x="606.5" y="658.8281"/><rect fill="#F1F1F1" height="2" style="stroke:#181818;stroke-width:0.5;" width="4" x="604.5" y="660.8281"/><rect fill="#F1F1F1" height="2" style="stroke:#181818;stroke-width:0.5;" width="4" x="604.5" y="664.8281"/><text fill="#000000" font-family="sans-serif" font-size="14" lengthAdjust="spacing" textLength="93" x="508.5" y="688.3613">Servidor HTTP</text></g><!--MD5=[23689a62b5e80204d759960f89ec0344]
entity Login--><g id="elem_Login"><rect fill="#F1F1F1" height="47.6094" rx="2.5" ry="2.5" style="stroke:#181818;stroke-width:0.5;" width="75" x="107.5" y="653.8281"/><rect fill="#F1F1F1" height="10" style="stroke:#181818;stroke-width:0.5;" width="15" x="162.5" y="658.8281"/><rect fill="#F1F1F1" height="2" style="stroke:#181818;stroke-width:0.5;" width="4" x="160.5" y="660.8281"/><rect fill="#F1F1F1" height="2" style="stroke:#181818;stroke-width:0.5;" width="4" x="160.5" y="664.8281"/><text fill="#000000" font-family="sans-serif" font-size="14" lengthAdjust="spacing" textLength="35" x="122.5" y="688.3613">Login</text></g><!--MD5=[7962d6575b0bd42420db1a2fcdd425c0]
entity Registro--><g id="elem_Registro"><rect fill="#F1F1F1" height="47.6094" rx="2.5" ry="2.5" style="stroke:#181818;stroke-width:0.5;" width="93" x="217.5" y="653.8281"/><rect fill="#F1F1F1" height="10" style="stroke:#181818;stroke-width:0.5;" width="15" x="290.5" y="658.8281"/><rect fill="#F1F1F1" height="2" style="stroke:#181818;stroke-width:0.5;" width="4" x="288.5" y="660.8281"/><rect fill="#F1F1F1" height="2" style="stroke:#181818;stroke-width:0.5;" width="4" x="288.5" y="664.8281"/><text fill="#000000" font-family="sans-serif" font-size="14" lengthAdjust="spacing" textLength="53" x="232.5" y="688.3613">Registro</text></g><!--MD5=[dcd897c62e27237b84d6f36ed398ec45]
entity Listado Órdenes--><g id="elem_Listado Órdenes"><rect fill="#F1F1F1" height="47.6094" rx="2.5" ry="2.5" style="stroke:#181818;stroke-width:0.5;" width="145" x="72.5" y="872.8281"/><rect fill="#F1F1F1" height="10" style="stroke:#181818;stroke-width:0.5;" width="15" x="197.5" y="877.8281"/><rect fill="#F1F1F1" height="2" style="stroke:#181818;stroke-width:0.5;" width="4" x="195.5" y="879.8281"/><rect fill="#F1F1F1" height="2" style="stroke:#181818;stroke-width:0.5;" width="4" x="195.5" y="883.8281"/><text fill="#000000" font-family="sans-serif" font-size="14" lengthAdjust="spacing" textLength="105" x="87.5" y="907.3613">Listado Órdenes</text></g><!--MD5=[cb05a017d77127e4ab93044c32e6ea28]
entity Registro Órdenes--><g id="elem_Registro Órdenes"><rect fill="#F1F1F1" height="47.6094" rx="2.5" ry="2.5" style="stroke:#181818;stroke-width:0.5;" width="152" x="72" y="1023.8281"/><rect fill="#F1F1F1" height="10" style="stroke:#181818;stroke-width:0.5;" width="15" x="204" y="1028.8281"/><rect fill="#F1F1F1" height="2" style="stroke:#181818;stroke-width:0.5;" width="4" x="202" y="1030.8281"/><rect fill="#F1F1F1" height="2" style="stroke:#181818;stroke-width:0.5;" width="4" x="202" y="1034.8281"/><text fill="#000000" font-family="sans-serif" font-size="14" lengthAdjust="spacing" textLength="112" x="87" y="1058.3613">Registro Órdenes</text></g><!--MD5=[ee2af25947cc7c84f452636fd685c794]
entity Actualización Órdenes--><g id="elem_Actualización Órdenes"><rect fill="#F1F1F1" height="47.6094" rx="2.5" ry="2.5" style="stroke:#181818;stroke-width:0.5;" width="181" x="252.5" y="872.8281"/><rect fill="#F1F1F1" height="10" style="stroke:#181818;stroke-width:0.5;" width="15" x="413.5" y="877.8281"/><rect fill="#F1F1F1" height="2" style="stroke:#181818;stroke-width:0.5;" width="4" x="411.5" y="879.8281"/><rect fill="#F1F1F1" height="2" style="stroke:#181818;stroke-width:0.5;" width="4" x="411.5" y="883.8281"/><text fill="#000000" font-family="sans-serif" font-size="14" lengthAdjust="spacing" textLength="141" x="267.5" y="907.3613">Actualización Órdenes</text></g><!--MD5=[31d9f9646cb52c054614ba682d3f7108]
entity Express Middleware--><g id="elem_Express Middleware"><rect fill="#F1F1F1" height="47.6094" rx="2.5" ry="2.5" style="stroke:#181818;stroke-width:0.5;" width="165" x="740.5" y="872.8281"/><rect fill="#F1F1F1" height="10" style="stroke:#181818;stroke-width:0.5;" width="15" x="885.5" y="877.8281"/><rect fill="#F1F1F1" height="2" style="stroke:#181818;stroke-width:0.5;" width="4" x="883.5" y="879.8281"/><rect fill="#F1F1F1" height="2" style="stroke:#181818;stroke-width:0.5;" width="4" x="883.5" y="883.8281"/><text fill="#000000" font-family="sans-serif" font-size="14" lengthAdjust="spacing" textLength="125" x="755.5" y="907.3613">Express Middleware</text></g><!--MD5=[8518d66c9b1d9a5e296f48e2cc02616a]
entity Express Routing--><g id="elem_Express Routing"><rect fill="#F1F1F1" height="47.6094" rx="2.5" ry="2.5" style="stroke:#181818;stroke-width:0.5;" width="143" x="562.5" y="872.8281"/><rect fill="#F1F1F1" height="10" style="stroke:#181818;stroke-width:0.5;" width="15" x="685.5" y="877.8281"/><rect fill="#F1F1F1" height="2" style="stroke:#181818;stroke-width:0.5;" width="4" x="683.5" y="879.8281"/><rect fill="#F1F1F1" height="2" style="stroke:#181818;stroke-width:0.5;" width="4" x="683.5" y="883.8281"/><text fill="#000000" font-family="sans-serif" font-size="14" lengthAdjust="spacing" textLength="103" x="577.5" y="907.3613">Express Routing</text></g><!--MD5=[ba72416187da2a396e219ea5b5d73a26]
entity MongoDB--><g id="elem_MongoDB"><path d="M484,1230.3281 C484,1220.3281 525,1220.3281 525,1220.3281 C525,1220.3281 566,1220.3281 566,1230.3281 L566,1256.9375 C566,1266.9375 525,1266.9375 525,1266.9375 C525,1266.9375 484,1266.9375 484,1256.9375 L484,1230.3281 " fill="#F1F1F1" style="stroke:#181818;stroke-width:0.5;"/><path d="M484,1230.3281 C484,1240.3281 525,1240.3281 525,1240.3281 C525,1240.3281 566,1240.3281 566,1230.3281 " fill="none" style="stroke:#181818;stroke-width:0.5;"/><text fill="#000000" font-family="sans-serif" font-size="14" lengthAdjust="spacing" textLength="62" x="494" y="1258.8613">MongoDB</text></g><!--MD5=[be62abfecf94cac247d0f11cfa453d87]
entity Almacenamiento--><g id="elem_Almacenamiento"><rect fill="#F1F1F1" height="47.6094" rx="2.5" ry="2.5" style="stroke:#181818;stroke-width:0.5;" width="144" x="601" y="1219.8281"/><rect fill="#F1F1F1" height="10" style="stroke:#181818;stroke-width:0.5;" width="15" x="725" y="1224.8281"/><rect fill="#F1F1F1" height="2" style="stroke:#181818;stroke-width:0.5;" width="4" x="723" y="1226.8281"/><rect fill="#F1F1F1" height="2" style="stroke:#181818;stroke-width:0.5;" width="4" x="723" y="1230.8281"/><text fill="#000000" font-family="sans-serif" font-size="14" lengthAdjust="spacing" textLength="104" x="616" y="1254.3613">Almacenamiento</text></g><!--MD5=[128f0757cf0ea77f14e95a88885fd9f7]
entity Usuario--><g id="elem_Usuario"><ellipse cx="480" cy="220.3281" fill="#F1F1F1" rx="8" ry="8" style="stroke:#181818;stroke-width:0.5;"/><path d="M480,228.3281 L480,255.3281 M467,236.3281 L493,236.3281 M480,255.3281 L467,270.3281 M480,255.3281 L493,270.3281 " fill="none" style="stroke:#181818;stroke-width:0.5;"/><text fill="#000000" font-family="sans-serif" font-size="14" lengthAdjust="spacing" textLength="48" x="456" y="286.3613">Usuario</text></g><!--MD5=[3ef2c257a260a1654a7c160846509a32]
entity ISP--><g id="elem_ISP"><polygon fill="#F1F1F1" points="529.5,409.8281,539.5,399.8281,590.5,399.8281,590.5,437.4375,580.5,447.4375,529.5,447.4375,529.5,409.8281" style="stroke:#181818;stroke-width:0.5;"/><line style="stroke:#181818;stroke-width:0.5;" x1="580.5" x2="590.5" y1="409.8281" y2="399.8281"/><line style="stroke:#181818;stroke-width:0.5;" x1="529.5" x2="580.5" y1="409.8281" y2="409.8281"/><line style="stroke:#181818;stroke-width:0.5;" x1="580.5" x2="580.5" y1="409.8281" y2="447.4375"/><text fill="#000000" font-family="sans-serif" font-size="14" lengthAdjust="spacing" textLength="21" x="544.5" y="434.3613">ISP</text></g><!--MD5=[d339afe8c85043fd404b919b5f59b290]
link Usuario to Navegador--><g id="link_Usuario_Navegador"><path d="M509.04,250.8281 C519.715,250.8281 531.5175,250.8281 541.0738,250.8281 C543.4628,250.8281 545.7115,250.8281 547.7671,250.8281 C548.7948,250.8281 549.7743,250.8281 550.699,250.8281 C550.9301,250.8281 551.1579,250.8281 551.3821,250.8281 C551.4942,250.8281 551.6054,250.8281 551.7157,250.8281 C551.7709,250.8281 551.8258,250.8281 551.8805,250.8281 " fill="none" id="Usuario-Navegador" style="stroke:#181818;stroke-width:1.0;"/><polygon fill="#181818" points="551.8805,250.8281,542.8805,246.8281,546.8805,250.8281,542.8805,254.8281,551.8805,250.8281" style="stroke:#181818;stroke-width:1.0;"/><polygon fill="#181818" points="504,250.8281,513,254.8281,509,250.8281,513,246.8281,504,250.8281" style="stroke:#181818;stroke-width:1.0;"/><text fill="#000000" font-family="sans-serif" font-size="13" lengthAdjust="spacing" textLength="12" x="525.82" y="244.3232">UI</text></g><!--MD5=[a6b469e6c7eb706a38bb573e226f0522]
link Navegador to ISP--><g id="link_Navegador_ISP"><path d="M560,304.2203 C560,305.1239 560,306.0334 560,306.9481 C560,336.2206 560,370.9531 560,394.7081 " fill="none" id="Navegador-ISP" style="stroke:#181818;stroke-width:1.0;"/><polygon fill="#181818" points="560,399.7181,564,390.7181,560,394.7181,556,390.7181,560,399.7181" style="stroke:#181818;stroke-width:1.0;"/><polygon fill="#181818" points="560,304.2203,556,313.2203,560,309.2203,564,313.2203,560,304.2203" style="stroke:#181818;stroke-width:1.0;"/><text fill="#000000" font-family="sans-serif" font-size="13" lengthAdjust="spacing" textLength="77" x="561" y="366.3232">HTTP/HTTPS</text></g><!--MD5=[ec23a44cb79b88e79675dcf54c1981ff]
link ISP to Servidor HTTP--><g id="link_ISP_Servidor HTTP"><path d="M560,453.3681 C560,501.9481 560,600.1381 560,648.5381 " fill="none" id="ISP-Servidor HTTP" style="stroke:#181818;stroke-width:1.0;"/><polygon fill="#181818" points="560,653.6281,564,644.6281,560,648.6281,556,644.6281,560,653.6281" style="stroke:#181818;stroke-width:1.0;"/><polygon fill="#181818" points="560,448.0881,556,457.0881,560,453.0881,564,457.0881,560,448.0881" style="stroke:#181818;stroke-width:1.0;"/><text fill="#000000" font-family="sans-serif" font-size="13" lengthAdjust="spacing" textLength="77" x="561" y="492.3232">HTTP/HTTPS</text></g><!--MD5=[9c8d8800bbf905b3295316fa4a2d33f8]
link Aplicación to Servidor HTTP--><g id="link_Aplicación_Servidor HTTP"><path d="M466.0664,677.8281 C466.1439,677.8281 466.2213,677.8281 466.2988,677.8281 C466.4537,677.8281 466.6086,677.8281 466.7635,677.8281 C467.0733,677.8281 467.3831,677.8281 467.6929,677.8281 C468.3126,677.8281 468.9322,677.8281 469.5519,677.8281 C470.7913,677.8281 472.0306,677.8281 473.27,677.8281 C478.2275,677.8281 483.185,677.8281 488.14,677.8281 " fill="none" id="Aplicación-Servidor HTTP" style="stroke:#181818;stroke-width:1.0;"/><polygon fill="#181818" points="493.32,677.8281,484.32,673.8281,488.32,677.8281,484.32,681.8281,493.32,677.8281" style="stroke:#181818;stroke-width:1.0;"/><polygon fill="#181818" points="466.0664,677.8281,475.0664,681.8281,471.0664,677.8281,475.0664,673.8281,466.0664,677.8281" style="stroke:#181818;stroke-width:1.0;"/></g><!--MD5=[25ef3213b8ea7915ea64088311d116dd]
link Aplicación to IBD--><g id="link_Aplicación_IBD"><path d="M466.1705,720.1693 C466.331,720.8559 466.4922,721.5432 466.6539,722.2311 C466.9774,723.6069 467.3032,724.985 467.6313,726.3651 C468.2874,729.1251 468.9523,731.8927 469.6246,734.6642 C472.3139,745.7501 475.1222,756.898 477.9631,767.8722 C483.645,789.8206 489.4575,811.0744 494.71,829.7481 C497.3363,839.085 499.8225,847.7769 502.0824,855.5881 C503.2124,859.4937 504.2858,863.1791 505.2918,866.6149 C505.4175,867.0444 505.5422,867.47 505.6658,867.8916 C505.7277,868.1024 505.7892,868.3122 505.8505,868.5211 C505.8811,868.6255 505.9117,868.7296 505.9422,868.8336 " fill="none" id="Aplicación-IBD" style="stroke:#181818;stroke-width:1.0;"/><polygon fill="#181818" points="505.9422,868.8336,507.2455,859.0713,504.534,864.036,499.5693,861.3244,505.9422,868.8336" style="stroke:#181818;stroke-width:1.0;"/><polygon fill="#181818" points="466.1705,720.1693,464.3244,729.8436,467.3088,725.038,472.1144,728.0223,466.1705,720.1693" style="stroke:#181818;stroke-width:1.0;"/></g><!--MD5=[14c618edb3f531e12c306633eb8b609d]
link Servidor HTTP to IBD--><g id="link_Servidor HTTP_IBD"><path d="M553.5,707.1181 C551.1,717.6881 548.38,729.7981 546,740.8281 C545.0856,745.0581 544.1627,749.3543 543.2356,753.6926 C543.1197,754.2349 543.0038,754.7778 542.8878,755.3214 C542.8298,755.5931 542.7718,755.8651 542.7137,756.1371 " fill="none" id="Servidor HTTP-IBD" style="stroke:#181818;stroke-width:1.0;"/><polygon fill="#181818" points="542.7137,756.1371,548.503,748.1694,543.7567,751.2471,540.679,746.5008,542.7137,756.1371" style="stroke:#181818;stroke-width:1.0;"/><polygon fill="#181818" points="554.65,702.0681,548.7439,709.9496,553.5351,706.9422,556.5425,711.7335,554.65,702.0681" style="stroke:#181818;stroke-width:1.0;"/></g><!--MD5=[0b4187b0260f5fc9e2eb6b3a7c1f109b]
link IBD to MongoDB--><g id="link_IBD_MongoDB"><path d="M516.2685,969.0138 C516.283,969.4699 516.2976,969.9276 516.3123,970.3867 C516.3416,971.3049 516.371,972.2288 516.4007,973.1583 C516.46,975.0174 516.52,976.8988 516.5806,978.8011 C517.066,994.0196 517.5941,1010.5759 518.1413,1027.7319 C520.33,1096.3556 522.825,1174.5731 524.12,1215.1381 " fill="none" id="IBD-MongoDB" style="stroke:#181818;stroke-width:1.0;"/><polygon fill="#181818" points="524.28,1220.2581,527.9953,1211.1369,524.1229,1215.2606,519.9993,1211.3882,524.28,1220.2581" style="stroke:#181818;stroke-width:1.0;"/><polygon fill="#181818" points="516.2685,969.0138,512.5574,978.1367,516.4279,974.0112,520.5534,977.8817,516.2685,969.0138" style="stroke:#181818;stroke-width:1.0;"/><text fill="#000000" font-family="sans-serif" font-size="13" lengthAdjust="spacing" textLength="41" x="522" y="1053.3232">TCP/IP</text></g><!--MD5=[c5ce7ffb3d789285794f6039ad5d43e5]
link MongoDB to Almacenamiento--><g id="link_MongoDB_Almacenamiento"><path d="M571.19,1243.8281 C579.35,1243.8281 587.5,1243.8281 595.65,1243.8281 " fill="none" id="MongoDB-Almacenamiento" style="stroke:#181818;stroke-width:1.0;"/><polygon fill="#181818" points="600.72,1243.8281,591.72,1239.8281,595.72,1243.8281,591.72,1247.8281,600.72,1243.8281" style="stroke:#181818;stroke-width:1.0;"/><polygon fill="#181818" points="566.05,1243.8281,575.05,1247.8281,571.05,1243.8281,575.05,1239.8281,566.05,1243.8281" style="stroke:#181818;stroke-width:1.0;"/></g><!--MD5=[ce3d4321b48e3111c4d0a69f7859f938]
link Login to Registro--><g id="link_Login_Registro"><path d="M182.65,677.8281 C192.48,677.8281 202.32,677.8281 212.15,677.8281 " fill="none" id="Login-to-Registro" style="stroke:#181818;stroke-width:1.0;"/><polygon fill="#181818" points="217.29,677.8281,208.29,673.8281,212.29,677.8281,208.29,681.8281,217.29,677.8281" style="stroke:#181818;stroke-width:1.0;"/></g><!--MD5=[cc10aabb34300fc3d8db889f1c26039c]
link Login to Listado Órdenes--><g id="link_Login_Listado Órdenes"><path d="M145,702.0481 C145,742.1881 145,824.3781 145,867.6881 " fill="none" id="Login-to-Listado Órdenes" style="stroke:#181818;stroke-width:1.0;"/><polygon fill="#181818" points="145,872.7681,149,863.7681,145,867.7681,141,863.7681,145,872.7681" style="stroke:#181818;stroke-width:1.0;"/></g><!--MD5=[752cb19d476226f43948b8cd53c68602]
link Listado Órdenes to Actualización Órdenes--><g id="link_Listado Órdenes_Actualización Órdenes"><path d="M217.7,896.8281 C227.57,896.8281 237.43,896.8281 247.3,896.8281 " fill="none" id="Listado Órdenes-to-Actualización Órdenes" style="stroke:#181818;stroke-width:1.0;"/><polygon fill="#181818" points="252.45,896.8281,243.45,892.8281,247.45,896.8281,243.45,900.8281,252.45,896.8281" style="stroke:#181818;stroke-width:1.0;"/></g><!--MD5=[561e25d85105b16918fe6104a3b68a2a]
link Listado Órdenes to Registro Órdenes--><g id="link_Listado Órdenes_Registro Órdenes"><path d="M145.47,921.1081 C146,947.4581 146.86,990.3881 147.43,1018.6181 " fill="none" id="Listado Órdenes-to-Registro Órdenes" style="stroke:#181818;stroke-width:1.0;"/><polygon fill="#181818" points="147.53,1023.7081,151.3492,1014.6299,147.43,1018.7091,143.3508,1014.7899,147.53,1023.7081" style="stroke:#181818;stroke-width:1.0;"/></g><!--MD5=[ab47c74b66f7532d512a94cfcf2d1e48]
@startuml

' !include https://raw.githubusercontent.com/ptrkcsk/one-dark-plantuml-theme/v1.0.0/theme.puml

title Diagrama de Despliegue\nSistema de Reserva\npara Plataforma de Envíos InstaYA
actor "Usuario"
' node node [
' <b>Sistema de Login
' - - - -
' Inicializa el panel de usuario
' Registra Usuario

' ]

node "Dispositivo Cliente" <<device - Windows, Linux, Mac, IOS, Android>> {

    node Navegador <<Aplicación>> {
        artifact Bootstrap <<artifact>>
        artifact React.js <<artifact>>
    }

}

node "Servidor Web" <<device>> {
    node "Aplicación" <<react>> {
        [Login]
        [Registro]
        [Listado Órdenes]
        [Registro Órdenes]
        [Actualización Órdenes]

    }
    component "Servidor HTTP"
    node "Interfaz BD - Node.Js" <<API Node.js>> as IBD {
        node "Express.js" {
            [Express Middleware]
            [Express Routing]

        }

    }
}

node "Servidor BD" <<device>> {

    database "MongoDB"
    component "Almacenamiento"
}

' node ISP <<Access Point>> {
'     rectangle "???"
' }
node "ISP"


[Usuario] <-> Navegador : UI
Navegador <- -> ISP : HTTP/HTTPS
ISP <- -> [Servidor HTTP] : HTTP/HTTPS

Aplicación <-> [Servidor HTTP]
Aplicación <-> IBD
[Servidor HTTP] <- -> IBD


' [Navegador] <- -> [Servidor HTTP] : <<HTTP/HTTPS>>\nISP
IBD <- - -> [MongoDB] : TCP/IP
[MongoDB] <-> [Almacenamiento]

[Login] -> [Registro]
[Login] - -> [Listado Órdenes]
[Listado Órdenes] -> [Actualización Órdenes]
[Listado Órdenes] - -> [Registro Órdenes]

@enduml

@startuml


title Diagrama de Despliegue\nSistema de Reserva\npara Plataforma de Envíos InstaYA
actor "Usuario"


node "Dispositivo Cliente" <<device - Windows, Linux, Mac, IOS, Android>> {

    node Navegador <<Aplicación>> {
        artifact Bootstrap <<artifact>>
        artifact React.js <<artifact>>
    }

}

node "Servidor Web" <<device>> {
    node "Aplicación" <<react>> {
        [Login]
        [Registro]
        [Listado Órdenes]
        [Registro Órdenes]
        [Actualización Órdenes]

    }
    component "Servidor HTTP"
    node "Interfaz BD - Node.Js" <<API Node.js>> as IBD {
        node "Express.js" {
            [Express Middleware]
            [Express Routing]

        }

    }
}

node "Servidor BD" <<device>> {

    database "MongoDB"
    component "Almacenamiento"
}

node "ISP"


[Usuario] <-> Navegador : UI
Navegador <- -> ISP : HTTP/HTTPS
ISP <- -> [Servidor HTTP] : HTTP/HTTPS

Aplicación <-> [Servidor HTTP]
Aplicación <-> IBD
[Servidor HTTP] <- -> IBD


IBD <- - -> [MongoDB] : TCP/IP
[MongoDB] <-> [Almacenamiento]

[Login] -> [Registro]
[Login] - -> [Listado Órdenes]
[Listado Órdenes] -> [Actualización Órdenes]
[Listado Órdenes] - -> [Registro Órdenes]

@enduml

PlantUML version 1.2022.7(Mon Aug 22 12:01:30 COT 2022)
(GPL source distribution)
Java Runtime: Java(TM) SE Runtime Environment
JVM: Java HotSpot(TM) 64-Bit Server VM
Default Encoding: Cp1252
Language: en
Country: US
--></g></svg>